<svg width="32" height="10" viewBox="0 0 32 10" fill="none" xmlns="http://www.w3.org/2000/svg">
<path d="M5.48864 9.13636C4.86932 9.13636 4.28693 9.01989 3.74148 8.78693C3.19886 8.55398 2.72017 8.23153 2.3054 7.8196C1.89347 7.40483 1.5696 6.92614 1.33381 6.38352C1.10085 5.84091 0.985795 5.25852 0.988636 4.63636C0.991477 4.0142 1.10938 3.43182 1.34233 2.8892C1.57813 2.34659 1.90199 1.86932 2.31392 1.45739C2.72585 1.04261 3.20313 0.71875 3.74574 0.485795C4.28835 0.252841 4.86932 0.136364 5.48864 0.136364C6.1108 0.136364 6.69318 0.252841 7.2358 0.485795C7.78125 0.71875 8.25852 1.04261 8.66761 1.45739C9.07955 1.86932 9.40199 2.34659 9.63494 2.8892C9.8679 3.43182 9.9858 4.0142 9.98864 4.63636C9.99148 5.25852 9.87642 5.84091 9.64347 6.38352C9.41051 6.92614 9.08807 7.40483 8.67614 7.8196C8.2642 8.23153 7.78551 8.55398 7.24006 8.78693C6.6946 9.01989 6.1108 9.13636 5.48864 9.13636ZM16.4691 9.13636C15.8498 9.13636 15.2674 9.01989 14.7219 8.78693C14.1793 8.55398 13.7006 8.23153 13.2859 7.8196C12.8739 7.40483 12.5501 6.92614 12.3143 6.38352C12.0813 5.84091 11.9663 5.25852 11.9691 4.63636C11.9719 4.0142 12.0898 3.43182 12.3228 2.8892C12.5586 2.34659 12.8825 1.86932 13.2944 1.45739C13.7063 1.04261 14.1836 0.71875 14.7262 0.485795C15.2688 0.252841 15.8498 0.136364 16.4691 0.136364C17.0913 0.136364 17.6737 0.252841 18.2163 0.485795C18.7617 0.71875 19.239 1.04261 19.6481 1.45739C20.06 1.86932 20.3825 2.34659 20.6154 2.8892C20.8484 3.43182 20.9663 4.0142 20.9691 4.63636C20.9719 5.25852 20.8569 5.84091 20.6239 6.38352C20.391 6.92614 20.0685 7.40483 19.6566 7.8196C19.2447 8.23153 18.766 8.55398 18.2205 8.78693C17.6751 9.01989 17.0913 9.13636 16.4691 9.13636ZM27.4496 9.13636C26.8303 9.13636 26.2479 9.01989 25.7024 8.78693C25.1598 8.55398 24.6811 8.23153 24.2663 7.8196C23.8544 7.40483 23.5305 6.92614 23.2947 6.38352C23.0618 5.84091 22.9467 5.25852 22.9496 4.63636C22.9524 4.0142 23.0703 3.43182 23.3033 2.8892C23.5391 2.34659 23.8629 1.86932 24.2749 1.45739C24.6868 1.04261 25.1641 0.71875 25.7067 0.485795C26.2493 0.252841 26.8303 0.136364 27.4496 0.136364C28.0717 0.136364 28.6541 0.252841 29.1967 0.485795C29.7422 0.71875 30.2195 1.04261 30.6286 1.45739C31.0405 1.86932 31.3629 2.34659 31.5959 2.8892C31.8288 3.43182 31.9467 4.0142 31.9496 4.63636C31.9524 5.25852 31.8374 5.84091 31.6044 6.38352C31.3714 6.92614 31.049 7.40483 30.6371 7.8196C30.2251 8.23153 29.7464 8.55398 29.201 8.78693C28.6555 9.01989 28.0717 9.13636 27.4496 9.13636Z" fill="#FFC5A5"/>
</svg>
